<svg xmlns="http://www.w3.org/2000/svg" width="20.001" height="20" viewBox="0 0 20.001 20">
  <g id="Groupe_28" data-name="Groupe 28" transform="translate(-3478.5 752)">
    <line id="Ligne_52" data-name="Ligne 52" x2="17" transform="translate(3480 -741)" fill="none" stroke="#fff" stroke-linecap="round" stroke-linejoin="round" stroke-width="2"/>
    <path id="Soustraction_1" data-name="Soustraction 1" d="M28,6H10c0-3.309,4.038-6,9-6s9,2.691,9,6Z" transform="translate(3469.5 -751)" fill="none" stroke="#fff" stroke-linecap="round" stroke-linejoin="round" stroke-width="2"/>
    <path id="Soustraction_2" data-name="Soustraction 2" d="M28,6H10q0-.156,0-.3a4.406,4.406,0,0,1,.407-2.584C11.129,2.146,12.986,2,19,2s7.871.146,8.593,1.111A4.4,4.4,0,0,1,28,5.694c0,.1,0,.2,0,.3Z" transform="translate(3507.501 -731) rotate(180)" fill="rgba(0,0,0,0)" stroke="#fff" stroke-linecap="round" stroke-linejoin="round" stroke-width="2"/>
  </g>
</svg>
